<?xml version="1.0" encoding="UTF-8" ?>
<!DOCTYPE svg PUBLIC "-//W3C//DTD SVG 1.1//EN" "http://www.w3.org/Graphics/SVG/1.1/DTD/svg11.dtd">
<svg width="1273pt" height="90pt" viewBox="0 0 1273 90" version="1.1" xmlns="http://www.w3.org/2000/svg">
<g id="#660000ff">
<path fill="#660000" opacity="1.00" d=" M 311.98 2.12 C 319.19 0.43 326.76 0.29 334.07 1.46 C 339.14 2.32 344.22 4.33 347.76 8.18 C 350.97 11.73 352.37 16.47 353.06 21.11 C 346.55 21.53 340.02 21.72 333.53 22.35 C 332.51 18.91 330.86 14.87 326.94 14.02 C 323.17 12.96 317.65 13.04 315.76 17.14 C 314.50 20.03 317.02 22.61 319.71 23.17 C 328.20 25.54 337.21 26.69 345.05 30.97 C 349.49 33.39 353.19 37.41 354.49 42.38 C 357.14 51.23 353.07 61.33 345.37 66.28 C 337.96 71.16 328.67 71.62 320.07 71.11 C 313.30 70.53 305.78 69.42 300.84 64.27 C 296.29 59.92 294.15 53.72 293.36 47.60 C 300.03 47.05 306.71 46.71 313.38 46.22 C 314.14 49.94 315.17 54.21 318.74 56.22 C 323.58 59.17 331.39 58.85 334.29 53.36 C 336.11 49.40 332.68 45.27 328.90 44.27 C 320.21 41.45 310.59 40.49 303.06 34.86 C 297.27 30.83 294.70 23.07 296.57 16.32 C 298.31 9.03 304.92 3.84 311.98 2.12 Z" />
<path fill="#660000" opacity="1.00" d=" M 436.05 3.12 C 443.95 -1.09 453.24 1.30 461.71 1.86 C 461.09 5.68 460.41 9.49 459.64 13.28 C 456.66 13.01 453.32 11.97 450.56 13.59 C 448.49 15.30 448.79 18.31 448.67 20.72 C 451.69 20.73 454.71 20.74 457.74 20.74 C 457.73 25.33 457.72 29.91 457.75 34.49 C 454.74 34.49 451.73 34.49 448.73 34.54 C 448.74 46.36 448.72 58.17 448.74 69.99 C 442.40 70.01 436.07 70.00 429.74 69.99 C 429.73 58.16 429.74 46.33 429.73 34.50 C 427.39 34.50 425.06 34.50 422.73 34.46 C 422.74 29.89 422.72 25.31 422.74 20.74 C 425.07 20.73 427.39 20.74 429.73 20.76 C 429.72 14.56 429.93 6.59 436.05 3.12 Z" />
<path fill="#660000" opacity="1.00" d=" M 0.00 2.00 C 21.33 2.00 42.67 2.00 64.00 2.00 C 64.00 7.58 64.01 13.16 63.99 18.74 C 56.84 18.73 49.68 18.73 42.53 18.73 C 42.46 35.82 42.51 52.91 42.51 70.00 C 35.50 70.00 28.50 70.00 21.49 70.00 C 21.49 52.91 21.54 35.82 21.47 18.73 C 14.31 18.73 7.16 18.73 0.00 18.73 L 0.00 2.00 Z" />
<path fill="#660000" opacity="1.00" d=" M 74.26 2.01 C 80.59 1.99 86.93 2.00 93.26 2.01 C 93.25 10.34 93.31 18.68 93.23 27.02 C 99.51 19.98 110.59 17.29 118.97 22.06 C 124.46 25.31 126.24 32.01 126.26 37.99 C 126.28 48.66 126.26 59.33 126.26 69.99 C 119.93 70.00 113.60 70.01 107.26 69.99 C 107.28 61.32 107.25 52.65 107.29 43.98 C 107.21 41.40 107.28 38.48 105.53 36.39 C 102.77 33.47 97.35 33.97 95.17 37.34 C 93.48 39.89 93.31 43.06 93.26 46.02 C 93.26 54.01 93.28 62.00 93.26 69.99 C 86.93 70.00 80.60 70.01 74.26 69.99 C 74.27 47.33 74.27 24.67 74.26 2.01 Z" />
<path fill="#660000" opacity="1.00" d=" M 138.26 2.01 C 144.60 1.99 150.93 2.00 157.26 2.01 C 157.27 6.25 157.27 10.49 157.26 14.73 C 150.92 14.74 144.58 14.71 138.24 14.76 C 138.28 10.51 138.27 6.26 138.26 2.01 Z" />
<path fill="#660000" opacity="1.00" d=" M 232.49 2.00 C 238.91 2.01 245.32 1.99 251.74 2.01 C 251.74 13.66 251.71 25.30 251.75 36.95 C 256.46 31.54 261.09 26.07 265.88 20.73 C 273.54 20.74 281.21 20.72 288.87 20.74 C 283.18 26.66 277.15 32.22 271.35 38.03 C 277.62 48.66 283.77 59.36 290.01 70.00 C 282.92 70.00 275.82 70.00 268.73 70.00 C 265.43 63.44 262.05 56.91 258.79 50.33 C 256.50 52.65 254.13 54.91 251.73 57.11 C 251.73 61.41 251.73 65.70 251.74 69.99 C 245.33 70.01 238.92 70.01 232.52 69.99 C 232.47 47.32 232.52 24.66 232.49 2.00 Z" />
<path fill="#660000" opacity="1.00" d=" M 468.51 11.71 C 474.80 8.42 481.14 5.23 487.48 2.02 C 487.52 8.26 487.50 14.49 487.49 20.73 C 490.99 20.73 494.49 20.73 498.00 20.74 C 497.98 25.34 498.08 29.94 497.91 34.54 C 494.44 34.49 490.97 34.49 487.51 34.51 C 487.74 41.64 486.97 48.85 487.92 55.92 C 489.95 59.19 494.30 57.24 497.18 56.52 C 497.52 60.85 498.02 65.15 498.56 69.46 C 491.29 70.94 483.54 71.99 476.31 69.77 C 470.75 67.90 468.76 61.66 468.62 56.33 C 468.33 49.06 468.59 41.78 468.49 34.51 C 466.15 34.50 463.81 34.49 461.47 34.48 C 461.52 29.89 461.49 25.31 461.50 20.73 C 463.83 20.73 466.17 20.74 468.50 20.74 C 468.49 17.73 468.50 14.72 468.51 11.71 Z" />
<path fill="#660000" opacity="1.00" d=" M 198.57 20.46 C 204.70 18.93 212.18 19.47 216.73 24.34 C 220.30 27.89 221.08 33.19 221.26 37.99 C 221.28 48.66 221.26 59.33 221.26 69.99 C 214.93 70.00 208.60 70.01 202.26 69.99 C 202.27 61.01 202.27 52.04 202.27 43.06 C 202.18 40.78 202.09 38.24 200.55 36.41 C 197.79 33.46 192.33 33.96 190.15 37.37 C 188.49 39.89 188.32 43.03 188.26 45.96 C 188.26 53.97 188.28 61.98 188.26 69.99 C 181.93 70.00 175.60 70.01 169.26 69.99 C 169.27 53.57 169.27 37.16 169.27 20.74 C 175.17 20.73 181.08 20.73 186.99 20.74 C 187.00 23.37 187.00 26.01 186.98 28.65 C 190.06 25.02 193.78 21.53 198.57 20.46 Z" />
<path fill="#660000" opacity="1.00" d=" M 381.55 20.72 C 390.91 18.70 401.70 19.43 409.49 25.50 C 421.50 34.80 421.56 55.28 409.85 64.84 C 404.12 69.68 396.35 71.20 389.03 71.01 C 381.94 70.81 374.56 68.67 369.51 63.45 C 359.53 54.04 359.84 36.13 369.94 26.92 C 373.10 23.78 377.23 21.75 381.55 20.72 M 387.25 33.15 C 383.69 34.55 381.85 38.34 381.46 41.95 C 380.96 46.41 381.10 51.40 383.89 55.14 C 386.67 58.89 392.79 59.39 396.09 56.05 C 398.66 53.80 399.19 50.18 399.48 46.96 C 399.66 43.18 399.37 39.07 397.13 35.88 C 395.00 32.81 390.65 31.56 387.25 33.15 Z" />
<path fill="#660000" opacity="1.00" d=" M 138.27 20.74 C 144.60 20.73 150.93 20.73 157.26 20.74 C 157.28 37.16 157.26 53.58 157.26 69.99 C 150.93 70.00 144.60 70.01 138.26 69.99 C 138.27 53.57 138.27 37.16 138.27 20.74 Z" />
</g>
<g id="#999999ff">
<path fill="#999999" opacity="1.00" d=" M 1084.52 7.56 C 1090.48 1.90 1099.12 0.83 1106.98 0.71 C 1114.43 0.74 1122.52 1.57 1128.57 6.35 C 1133.05 9.91 1135.04 15.61 1135.80 21.10 C 1129.25 21.52 1122.69 21.78 1116.15 22.30 C 1115.37 18.83 1113.61 14.99 1109.83 14.07 C 1106.02 12.95 1100.05 12.95 1098.47 17.42 C 1097.44 19.98 1099.61 22.46 1102.03 23.02 C 1111.55 25.82 1121.99 26.80 1130.34 32.61 C 1138.24 37.99 1140.06 49.43 1135.74 57.63 C 1132.23 65.17 1124.21 69.56 1116.23 70.65 C 1107.33 71.81 1097.94 71.58 1089.49 68.31 C 1081.37 64.82 1076.97 56.01 1076.15 47.56 C 1082.81 47.08 1089.48 46.71 1096.15 46.23 C 1096.81 50.00 1097.99 54.15 1101.51 56.25 C 1106.23 59.01 1113.69 58.93 1116.80 53.82 C 1118.67 50.76 1116.79 46.75 1113.79 45.24 C 1108.67 42.65 1102.80 42.23 1097.42 40.36 C 1091.27 38.36 1084.67 35.57 1081.15 29.81 C 1076.84 22.80 1078.49 13.05 1084.52 7.56 Z" />
<path fill="#999999" opacity="1.00" d=" M 558.24 2.00 C 566.04 2.02 573.85 1.96 581.66 2.03 C 589.98 24.69 598.42 47.31 606.72 69.98 C 599.38 69.99 592.04 70.06 584.70 69.94 C 583.62 66.19 582.52 62.45 581.37 58.72 C 573.48 58.74 565.59 58.74 557.70 58.72 C 556.49 62.48 555.38 66.27 554.18 70.04 C 547.04 69.96 539.91 70.02 532.77 70.00 C 541.22 47.32 549.78 24.68 558.24 2.00 M 562.16 43.98 C 567.09 44.01 572.03 44.01 576.96 43.98 C 574.55 35.80 571.93 27.67 569.67 19.45 C 567.18 27.63 564.69 35.81 562.16 43.98 Z" />
<path fill="#999999" opacity="1.00" d=" M 850.47 11.63 C 856.65 8.26 863.03 5.25 869.28 2.01 C 869.27 8.27 869.22 14.53 869.30 20.79 C 872.75 20.74 876.19 20.74 879.65 20.68 C 879.81 25.30 879.70 29.92 879.73 34.54 C 876.23 34.48 872.74 34.50 869.25 34.49 C 869.46 41.53 868.86 48.63 869.57 55.64 C 871.37 59.20 875.98 57.42 878.92 56.51 C 879.30 60.85 879.78 65.18 880.28 69.51 C 873.03 70.88 865.33 72.00 858.13 69.79 C 853.17 68.16 850.79 62.80 850.53 57.93 C 849.96 50.15 850.40 42.33 850.27 34.53 C 847.93 34.50 845.58 34.49 843.25 34.49 C 843.28 29.91 843.26 25.32 843.27 20.74 C 845.60 20.74 847.93 20.74 850.28 20.73 C 850.36 17.70 849.99 14.63 850.47 11.63 Z" />
<path fill="#999999" opacity="1.00" d=" M 889.49 2.00 C 895.83 2.00 902.17 2.00 908.51 2.00 C 908.48 6.25 908.49 10.49 908.51 14.74 C 902.17 14.73 895.83 14.73 889.49 14.74 C 889.50 10.49 889.51 6.25 889.49 2.00 Z" />
<path fill="#999999" opacity="1.00" d=" M 1198.73 2.00 C 1206.53 2.00 1214.33 2.00 1222.14 2.00 C 1230.49 24.67 1238.91 47.32 1247.22 70.00 C 1239.90 69.99 1232.57 70.02 1225.26 69.99 C 1224.11 66.24 1223.00 62.48 1221.90 58.73 C 1213.98 58.72 1206.07 58.76 1198.17 58.71 C 1197.00 62.46 1195.87 66.22 1194.75 69.98 C 1187.59 70.02 1180.43 70.01 1173.27 69.98 C 1181.73 47.31 1190.28 24.67 1198.73 2.00 M 1202.66 44.00 C 1207.59 44.00 1212.53 44.00 1217.48 43.99 C 1215.00 35.90 1212.62 27.77 1210.12 19.68 C 1207.58 27.77 1205.18 35.91 1202.66 44.00 Z" />
<path fill="#999999" opacity="1.00" d=" M 630.50 28.64 C 632.42 25.18 634.74 21.25 638.86 20.21 C 643.16 18.86 647.56 20.51 651.53 22.13 C 649.63 26.72 647.63 31.26 645.69 35.82 C 642.99 34.94 639.94 33.65 637.23 35.23 C 633.72 37.05 632.88 41.32 632.29 44.88 C 631.21 53.20 631.94 61.62 631.74 69.99 C 625.40 70.01 619.07 70.00 612.74 70.00 C 612.74 53.58 612.73 37.16 612.74 20.74 C 618.66 20.73 624.59 20.73 630.51 20.74 C 630.49 23.38 630.49 26.01 630.50 28.64 Z" />
<path fill="#999999" opacity="1.00" d=" M 660.28 25.30 C 665.73 19.49 674.75 18.49 682.03 20.96 C 685.60 22.20 688.13 25.14 690.59 27.87 C 690.52 25.49 690.49 23.12 690.47 20.74 C 696.40 20.73 702.33 20.73 708.26 20.74 C 708.28 36.83 708.24 52.92 708.28 69.01 C 708.39 75.04 705.88 81.24 701.14 85.06 C 696.44 88.75 690.28 89.52 684.51 90.00 L 677.63 90.00 C 671.20 89.47 663.83 88.95 659.19 83.86 C 655.89 80.55 655.30 75.68 655.42 71.22 C 661.48 71.92 667.56 72.51 673.62 73.23 C 675.41 79.01 683.98 80.02 687.67 75.62 C 690.14 71.25 689.02 65.98 689.29 61.19 C 683.68 67.84 673.57 70.02 665.81 66.03 C 658.89 62.37 654.91 54.69 654.41 47.05 C 653.84 39.52 654.62 30.90 660.28 25.30 M 677.33 34.31 C 674.09 35.76 673.33 39.65 673.03 42.82 C 672.77 46.63 673.09 51.14 676.33 53.70 C 680.13 56.88 686.54 55.09 688.36 50.54 C 689.85 46.37 689.94 41.40 687.73 37.46 C 685.79 33.93 680.90 32.35 677.33 34.31 Z" />
<path fill="#999999" opacity="1.00" d=" M 725.86 25.77 C 733.06 19.74 743.15 19.02 752.12 20.17 C 758.81 20.85 765.54 23.91 769.46 29.55 C 773.67 35.44 774.38 42.97 774.28 50.00 C 761.65 50.01 749.01 49.98 736.38 50.01 C 736.94 53.58 738.32 57.53 741.88 59.11 C 746.46 61.33 751.92 59.39 754.93 55.51 C 760.98 56.11 767.05 56.65 773.12 57.21 C 769.76 64.08 763.06 69.23 755.42 70.25 C 746.98 71.41 737.85 71.75 729.95 68.11 C 714.78 60.32 712.77 36.41 725.86 25.77 M 739.00 34.10 C 737.32 36.01 736.96 38.59 736.43 40.97 C 742.65 41.03 748.88 40.99 755.10 41.00 C 754.60 38.44 754.19 35.68 752.42 33.64 C 748.98 29.89 742.16 30.08 739.00 34.10 Z" />
<path fill="#999999" opacity="1.00" d=" M 812.59 20.40 C 818.70 18.97 826.16 19.53 830.61 24.46 C 834.01 28.03 834.88 33.19 834.99 37.94 C 835.02 48.63 834.99 59.31 835.00 70.00 C 828.66 70.00 822.33 70.00 816.00 70.00 C 815.99 61.00 816.01 52.01 816.00 43.01 C 815.92 40.59 815.81 37.84 813.99 36.01 C 810.96 33.44 805.72 34.16 803.71 37.64 C 802.27 40.16 802.06 43.15 801.99 45.99 C 802.00 53.99 802.00 61.99 802.00 70.00 C 795.66 70.00 789.33 70.00 783.00 70.00 C 783.00 53.58 782.99 37.16 783.00 20.74 C 788.91 20.74 794.82 20.73 800.73 20.74 C 800.73 23.38 800.73 26.03 800.73 28.67 C 803.81 24.91 807.69 21.43 812.59 20.40 Z" />
<path fill="#999999" opacity="1.00" d=" M 949.63 20.45 C 955.75 18.93 963.20 19.49 967.75 24.35 C 971.29 27.90 972.08 33.19 972.26 37.98 C 972.27 48.65 972.26 59.32 972.26 70.00 C 965.93 70.00 959.59 70.01 953.26 69.99 C 953.28 61.33 953.25 52.67 953.29 44.00 C 953.22 41.44 953.27 38.56 951.59 36.45 C 948.87 33.48 943.42 33.93 941.20 37.29 C 939.48 39.84 939.31 43.04 939.26 46.01 C 939.26 54.01 939.27 62.00 939.26 70.00 C 932.93 70.00 926.59 70.01 920.26 69.99 C 920.27 53.57 920.27 37.16 920.26 20.74 C 926.17 20.73 932.08 20.74 938.00 20.74 C 938.00 23.38 937.99 26.01 937.99 28.65 C 941.06 25.00 944.81 21.51 949.63 20.45 Z" />
<path fill="#999999" opacity="1.00" d=" M 994.57 21.49 C 1003.87 18.98 1013.80 19.31 1023.23 20.98 C 1030.26 22.16 1035.17 28.71 1035.60 35.63 C 1035.96 44.38 1035.55 53.17 1035.79 61.93 C 1035.84 64.78 1036.89 67.45 1038.04 70.01 C 1032.11 69.99 1026.19 70.01 1020.26 69.99 C 1019.31 68.08 1018.61 66.06 1018.23 63.96 C 1012.56 69.99 1003.81 71.69 995.88 70.81 C 991.88 70.39 987.74 69.02 985.00 65.94 C 980.79 61.66 980.40 54.51 983.47 49.47 C 985.96 45.60 990.54 43.95 994.82 42.91 C 1002.40 41.18 1010.22 40.18 1017.45 37.17 C 1017.02 35.12 1016.88 32.39 1014.57 31.54 C 1009.54 30.07 1002.52 30.96 1000.82 36.79 C 994.88 36.07 988.91 35.63 982.97 34.98 C 983.95 28.72 988.34 23.15 994.57 21.49 M 1003.32 51.22 C 1000.02 52.56 999.41 57.63 1002.53 59.52 C 1006.57 61.70 1011.83 60.13 1014.95 57.01 C 1017.55 54.32 1017.23 50.28 1017.31 46.82 C 1012.69 48.43 1007.77 49.16 1003.32 51.22 Z" />
<path fill="#999999" opacity="1.00" d=" M 889.49 20.74 C 895.83 20.73 902.17 20.73 908.51 20.74 C 908.49 37.16 908.49 53.58 908.51 70.00 C 902.17 70.00 895.83 70.00 889.49 70.00 C 889.51 53.58 889.51 37.16 889.49 20.74 Z" />
<path fill="#999999" opacity="1.00" d=" M 1147.26 51.01 C 1154.01 50.99 1160.76 51.00 1167.51 51.00 C 1167.49 57.33 1167.48 63.67 1167.51 70.00 C 1160.76 70.00 1154.01 70.01 1147.26 69.99 C 1147.27 63.66 1147.27 57.34 1147.26 51.01 Z" />
<path fill="#999999" opacity="1.00" d=" M 1252.74 51.00 C 1259.49 50.99 1266.24 51.00 1273.00 51.00 L 1273.00 70.00 C 1266.24 70.00 1259.49 70.00 1252.74 70.00 C 1252.73 63.66 1252.73 57.33 1252.74 51.00 Z" />
</g>
</svg>
